<svg xmlns="http://www.w3.org/2000/svg" version="1.1" xmlns:xlink="http://www.w3.org/1999/xlink" xmlns:svgjs="http://svgjs.com/svgjs" width="512" height="512" x="0" y="0" viewBox="0 0 512 512" style="enable-background:new 0 0 512 512" xml:space="preserve" class=""><g><g xmlns="http://www.w3.org/2000/svg"><path d="m255.898 105.86v12c0 4.142 3.357 7.5 7.5 7.5s7.5-3.358 7.5-7.5v-12c0-4.142-3.357-7.5-7.5-7.5s-7.5 3.358-7.5 7.5zm37.369 91.58c23.598-19.892 37.815-47.859 37.815-79.787 0-23.18-7.444-45.605-21.527-64.852-2.445-3.344-7.14-4.069-10.481-1.624-3.343 2.446-4.07 7.139-1.624 10.481 12.189 16.659 18.633 36.021 18.633 55.994 0 54.795-49.497 96.116-115.134 96.116s-115.133-41.32-115.133-96.115c0-56.603 51.648-102.653 115.132-102.653 26.471 0 52.318 8.212 72.783 23.123 3.348 2.438 8.039 1.704 10.478-1.645 2.44-3.348 1.703-8.039-1.645-10.478-23.01-16.767-51.996-26-81.616-26-71.756 0-130.132 52.779-130.132 117.653 0 31.929 14.218 59.896 37.816 79.788-30.68 32.75-65.01 87.194-79.93 120.264-10.209 22.635-.1 49.356 22.535 59.568 19.509 8.795 42.043 2.504 54.435-13.881-4.122 35.855-6.379 71.227-7.484 92.482-.222 4.277 3.18 7.889 7.497 7.889 3.963 0 7.275-3.107 7.483-7.111 2.343-45.09 9.565-145.821 26.831-187.555 1.584-3.827-.234-8.214-4.062-9.798-3.83-1.584-8.215.234-9.798 4.063-5.49 13.264-10.414 32.803-14.645 58.059-6.083 10.456-11.167 20.06-14.365 27.149-6.808 15.092-24.63 21.836-39.726 15.029-15.095-6.809-21.837-24.631-15.028-39.727 14.91-33.05 48.795-86.288 78.404-117.446 21.799 14.126 49.413 22.342 80.169 22.342 30.759 0 58.377-8.218 80.177-22.347 30.365 31.961 64.232 86.051 78.396 117.451 6.81 15.096.067 32.917-15.027 39.726-15.093 6.807-32.918.067-39.728-15.027-3.198-7.09-8.282-16.694-14.365-27.15-4.231-25.257-9.155-44.795-14.645-58.059-1.583-3.828-5.968-5.647-9.798-4.063-3.827 1.584-5.645 5.971-4.061 9.798 17.832 43.1 25.116 149.561 27.27 196.492.762 16.578-12.038 30.617-28.627 31.378-16.46.767-30.522-11.909-31.369-28.462-.014-48.517-5.45-66.007-21.748-93.867-2.894-4.945-10.054-4.943-12.947 0-16.3 27.862-21.736 45.352-21.75 93.867-.844 16.491-14.829 29.22-31.371 28.462-8.588-.394-16.61-4.461-22.012-11.16-2.599-3.224-7.321-3.731-10.546-1.13-3.225 2.6-3.73 7.322-1.13 10.546 8.096 10.04 20.123 16.137 32.997 16.728 24.861 1.142 45.912-18.049 47.054-42.921.005-.115.008-.229.008-.344 0-38.192 3.293-55.096 13.224-74.713 9.93 19.615 13.222 36.519 13.222 74.713 0 .115.003.229.008.344 1.133 24.642 21.976 44.076 47.052 42.92 24.863-1.142 44.065-22.185 42.921-47.051-.867-18.883-3.133-59.839-7.926-101.505 12.395 16.382 34.931 22.671 54.436 13.878 22.636-10.211 32.744-36.932 22.534-59.567-15.141-33.555-49.327-87.594-79.93-120.265zm186.512 280.078h-36.795v-443.414h36.795c4.143 0 7.5-3.358 7.5-7.5s-3.357-7.5-7.5-7.5h-88.589c-4.143 0-7.5 3.358-7.5 7.5s3.357 7.5 7.5 7.5h36.794v93.662h-12.965c-4.143 0-7.5 3.358-7.5 7.5s3.357 7.5 7.5 7.5h12.965v105.545h-12.965c-4.143 0-7.5 3.358-7.5 7.5s3.357 7.5 7.5 7.5h12.965v105.545h-12.965c-4.143 0-7.5 3.358-7.5 7.5s3.357 7.5 7.5 7.5h12.965v93.661h-36.794c-4.143 0-7.5 3.358-7.5 7.5s3.357 7.5 7.5 7.5h88.589c4.143 0 7.5-3.358 7.5-7.5s-3.358-7.499-7.5-7.499zm-268.019-364.943c-2.73 3.132-6.671 4.929-10.811 4.929-4.141 0-8.08-1.796-10.81-4.928-2.723-3.122-7.46-3.448-10.582-.727-3.122 2.722-3.448 7.459-.727 10.582 5.579 6.401 13.641 10.073 22.118 10.073s16.539-3.671 22.118-10.072c2.722-3.123 2.397-7.86-.726-10.582-3.121-2.722-7.858-2.398-10.58.725zm-80.76-6.715v12c0 4.142 3.357 7.5 7.5 7.5s7.5-3.358 7.5-7.5v-12c0-4.142-3.357-7.5-7.5-7.5-4.142 0-7.5 3.358-7.5 7.5z" fill="#ffffff" data-original="#000000" class=""></path></g></g></svg>