<svg xmlns="http://www.w3.org/2000/svg" version="1.1" xmlns:xlink="http://www.w3.org/1999/xlink" xmlns:svgjs="http://svgjs.com/svgjs" width="512" height="512" x="0" y="0" viewBox="0 0 512 512" style="enable-background:new 0 0 512 512" xml:space="preserve" class=""><g>
<g xmlns="http://www.w3.org/2000/svg">
	<g>
		<g>
			<rect x="267.636" y="395.636" width="46.545" height="46.545" fill="#ffffff" data-original="#000000" class=""></rect>
			<rect x="267.636" y="314.182" width="46.545" height="46.545" fill="#ffffff" data-original="#000000" class=""></rect>
			<rect x="197.818" y="232.727" width="46.545" height="46.545" fill="#ffffff" data-original="#000000" class=""></rect>
			<rect x="197.818" y="314.182" width="46.545" height="46.545" fill="#ffffff" data-original="#000000" class=""></rect>
			<rect x="337.455" y="314.182" width="46.545" height="46.545" fill="#ffffff" data-original="#000000" class=""></rect>
			<rect x="407.273" y="314.182" width="46.545" height="46.545" fill="#ffffff" data-original="#000000" class=""></rect>
			<rect x="407.273" y="232.727" width="46.545" height="46.545" fill="#ffffff" data-original="#000000" class=""></rect>
			<rect x="337.455" y="232.727" width="46.545" height="46.545" fill="#ffffff" data-original="#000000" class=""></rect>
			<rect x="267.636" y="232.727" width="46.545" height="46.545" fill="#ffffff" data-original="#000000" class=""></rect>
			<rect x="58.182" y="314.182" width="46.545" height="46.545" fill="#ffffff" data-original="#000000" class=""></rect>
			<rect x="58.182" y="395.636" width="46.545" height="46.545" fill="#ffffff" data-original="#000000" class=""></rect>
			<path d="M465.455,46.545h-46.545V11.636C418.909,5.21,413.699,0,407.273,0c-6.427,0-11.636,5.21-11.636,11.636v34.909H116.364     V11.636C116.364,5.21,111.154,0,104.727,0c-6.427,0-11.636,5.21-11.636,11.636v34.909H46.545C20.839,46.545,0,67.385,0,93.091     v372.364C0,491.161,20.839,512,46.545,512h418.909C491.161,512,512,491.161,512,465.455V93.091     C512,67.385,491.161,46.545,465.455,46.545z M488.727,465.455c0,12.853-10.42,23.273-23.273,23.273H46.545     c-12.853,0-23.273-10.42-23.273-23.273V186.182h465.455V465.455z M488.727,162.909H23.273V93.091     c0-12.853,10.42-23.273,23.273-23.273h46.545v34.909c0,6.427,5.21,11.636,11.636,11.636c6.427,0,11.636-5.21,11.636-11.636     V69.818h279.273v34.909c0,6.427,5.21,11.636,11.636,11.636c6.427,0,11.636-5.21,11.636-11.636V69.818h46.545     c12.853,0,23.273,10.42,23.273,23.273V162.909z" fill="#ffffff" data-original="#000000" class=""></path>
			<rect x="58.182" y="232.727" width="46.545" height="46.545" fill="#ffffff" data-original="#000000" class=""></rect>
			<rect x="197.818" y="395.636" width="46.545" height="46.545" fill="#ffffff" data-original="#000000" class=""></rect>
			<rect x="128" y="395.636" width="46.545" height="46.545" fill="#ffffff" data-original="#000000" class=""></rect>
			<rect x="128" y="232.727" width="46.545" height="46.545" fill="#ffffff" data-original="#000000" class=""></rect>
			<rect x="128" y="314.182" width="46.545" height="46.545" fill="#ffffff" data-original="#000000" class=""></rect>
		</g>
	</g>
</g>
<g xmlns="http://www.w3.org/2000/svg">
</g>
<g xmlns="http://www.w3.org/2000/svg">
</g>
<g xmlns="http://www.w3.org/2000/svg">
</g>
<g xmlns="http://www.w3.org/2000/svg">
</g>
<g xmlns="http://www.w3.org/2000/svg">
</g>
<g xmlns="http://www.w3.org/2000/svg">
</g>
<g xmlns="http://www.w3.org/2000/svg">
</g>
<g xmlns="http://www.w3.org/2000/svg">
</g>
<g xmlns="http://www.w3.org/2000/svg">
</g>
<g xmlns="http://www.w3.org/2000/svg">
</g>
<g xmlns="http://www.w3.org/2000/svg">
</g>
<g xmlns="http://www.w3.org/2000/svg">
</g>
<g xmlns="http://www.w3.org/2000/svg">
</g>
<g xmlns="http://www.w3.org/2000/svg">
</g>
<g xmlns="http://www.w3.org/2000/svg">
</g>
</g></svg>